PathFileType	4	(X/Y/Z)	OpenSim_Sub08_CSBaseline_Gyro.trc
DataRate	CameraRate	NumFrames	NumMarkers	Units	OrigDataRate	OrigDataStartFrame	OrigNumFrames
100	100	34	8	m	100	3414	5461
Frame#	Time	torso_imu_offset_imu	pelvis_imu_offset_imu	tibia_r_imu_offset_imu	femur_r_imu_offset_imu	tibia_l_imu_offset_imu	femur_l_imu_offset_imu	toes_r_imu_offset_imu	toes_l_imu_offset_imu
				X1	Y1	Z1	X2	Y2	Z2	X3	Y3	Z3	X4	Y4	Z4	X5	Y5	Z5	X6	Y6	Z6	X7	Y7	Z7	X8		Y8	Z8	

3414	34.13000000	-0.82777100	-0.18428600	-0.00308200	-0.03844500	-0.16214700	0.41826800	1.57826100	-0.07651600	3.32098000	1.58215700	0.01707300	1.02211100	0.51372700	-0.20336600	0.49399500	0.85787100	-0.23893400	0.56931800	-0.66639500	3.28850300	3.53722300	0.09419600	-0.14764300	-0.01814400
3415	34.14000000	-0.79395000	-0.18956900	-0.02622400	0.03705900	-0.11675600	0.41995500	2.36973900	0.07744600	3.82078600	1.49667900	0.09146500	0.87887700	0.48920500	-0.16098300	0.52883000	0.97585400	-0.25659700	0.55806500	-0.45020200	3.62497300	3.63963400	0.07261000	-0.10709100	0.01586000
3416	34.15000000	-0.76981800	-0.18973400	-0.04602400	0.08869300	-0.04889700	0.42913200	3.14882600	0.16855500	4.20860300	1.38661700	0.17245400	0.72528400	0.47547200	-0.17000700	0.54860400	0.99901000	-0.27785500	0.50891100	-0.53132100	3.68374000	3.65551100	0.08681900	-0.10582000	0.05121100
3417	34.16000000	-0.73747100	-0.20609100	-0.07161300	0.11534400	0.02414300	0.43993700	3.68660000	0.27754700	4.44097300	1.23002000	0.22208600	0.59332600	0.51092300	-0.18227400	0.54248300	0.90942100	-0.30321700	0.44594300	-0.87897000	3.46127800	3.59508800	0.06010700	-0.10556600	0.09085900
3418	34.17000000	-0.70774900	-0.21518200	-0.08976300	0.12846000	0.08933900	0.45063100	3.89101800	0.48462700	4.48262400	1.01886700	0.20542200	0.50320000	0.53590400	-0.17914300	0.54568300	0.77456000	-0.29272900	0.41400400	-1.33049600	3.09734800	3.51044400	0.07986000	-0.11021400	0.07196400
3419	34.18000000	-0.66530600	-0.23006700	-0.09893000	0.14854200	0.12299000	0.44312200	3.58221200	0.73477900	4.35453200	0.77802300	0.16339300	0.43721000	0.54293300	-0.18491700	0.60797900	0.62166800	-0.25880900	0.42343700	-1.69712400	2.73983200	3.42852800	0.13677800	-0.13120000	0.04816100
3420	34.19000000	-0.62441100	-0.24621400	-0.11163100	0.20250000	0.10518400	0.41462800	2.53738000	0.90853000	4.18699300	0.53606000	0.12790400	0.35889000	0.50518000	-0.17010400	0.64978100	0.50138500	-0.21573500	0.43631900	-1.71105400	2.61313800	3.30426900	0.12953400	-0.11407500	0.02371200
3421	34.20000000	-0.57274300	-0.25638000	-0.11868000	0.29486700	0.06383000	0.37676600	1.11093300	1.04096800	4.15409000	0.32558300	0.12597400	0.23389800	0.46913200	-0.17298600	0.67138400	0.44373300	-0.17733600	0.44286600	-1.41369900	2.96005700	3.02634900	0.13618000	-0.12298900	0.00617600
3422	34.21000000	-0.52209500	-0.26765400	-0.13139700	0.41084200	0.02606900	0.31380800	0.00792300	1.17682800	4.33623700	0.11837400	0.13842200	0.07787100	0.43011300	-0.15371100	0.68041800	0.45879300	-0.16022100	0.41463000	-1.03893400	3.46174600	2.61056000	0.13035100	-0.10625100	0.01563600
3423	34.22000000	-0.47324800	-0.28463200	-0.14561900	0.51816900	0.01333700	0.25667500	-0.33488700	1.20939400	4.72041100	-0.03006100	0.16948700	-0.08459200	0.37505600	-0.15204500	0.72389300	0.52319200	-0.13922100	0.37099500	-1.17224800	3.77728700	2.24656400	0.14535600	-0.10282000	0.01362500
3424	34.23000000	-0.42904800	-0.29237300	-0.16121400	0.57701800	0.01912900	0.18931500	-0.02785900	1.09449800	5.09400100	-0.11695700	0.19235500	-0.24930700	0.33635100	-0.16594100	0.77186400	0.60283600	-0.10124600	0.32348400	-1.61035600	3.97188900	2.07344500	0.10816600	-0.05664000	0.06231500
3425	34.24000000	-0.37720400	-0.29728500	-0.15837500	0.57475000	0.03153500	0.15370000	0.42266900	1.14716900	5.25975400	-0.19502100	0.18162300	-0.39571200	0.34663800	-0.15744200	0.78686200	0.62705000	-0.07390400	0.28341400	-1.80697800	4.16679200	2.12086300	0.09429500	-0.08074600	0.05450300
3426	34.25000000	-0.31938300	-0.29159000	-0.14908200	0.54828400	0.04527500	0.12342300	0.74595400	1.38528400	5.18664300	-0.29127600	0.15233200	-0.50692900	0.35820500	-0.12587400	0.80899000	0.61637000	-0.06055300	0.28528300	-1.50201100	4.37774600	2.37688000	0.13230400	-0.09694000	0.06469900
3427	34.26000000	-0.25726700	-0.28215300	-0.13373900	0.51438400	0.05780300	0.10858600	0.81811300	1.43879700	4.83789300	-0.35278100	0.13563200	-0.57972100	0.35360100	-0.12149800	0.82315000	0.57906800	-0.05541900	0.31538600	-0.89196800	4.45265800	2.75384600	0.08975400	-0.07969700	0.09089300
3428	34.27000000	-0.20343900	-0.26401900	-0.12221300	0.46853000	0.06448500	0.10270300	0.72795300	1.33336100	4.25209600	-0.40962800	0.14692600	-0.61320900	0.32408300	-0.12151500	0.86511700	0.53020400	-0.06151300	0.36168700	-0.29663700	4.35911700	3.12880400	0.08320300	-0.08248200	0.12048300
3429	34.28000000	-0.15942200	-0.24066400	-0.11586200	0.42081000	0.04058000	0.08089800	0.84065000	1.37082800	3.79515700	-0.55579700	0.16354000	-0.62210200	0.27573800	-0.10454800	0.89240900	0.48571900	-0.08311300	0.37955800	0.16459500	4.25736000	3.40056100	0.04185700	-0.05318000	0.14066800
3430	34.29000000	-0.12022600	-0.22149400	-0.10686800	0.36171900	0.00202600	0.04842100	1.45971800	1.46208000	3.75748600	-0.74017600	0.17616700	-0.63310300	0.22785900	-0.08983200	0.89346800	0.42756100	-0.10249300	0.36833600	0.38186400	4.12186700	3.60643700	0.08984800	-0.09218100	0.11068600
3431	34.30000000	-0.09270600	-0.18737700	-0.10607700	0.32063500	-0.05081200	0.01144000	2.39832500	1.48231700	3.96164900	-0.82204300	0.21387100	-0.66952200	0.18193100	-0.10140400	0.89500800	0.34713300	-0.13342600	0.38165400	0.50412300	3.91512300	3.80906200	0.06784700	-0.09613600	0.12845300
3432	34.31000000	-0.06623700	-0.16544100	-0.10700300	0.28586700	-0.10393900	-0.02500700	3.15474000	1.43114600	3.98259300	-0.74086600	0.25905200	-0.68747700	0.16347100	-0.11182100	0.91618000	0.32520900	-0.19069900	0.40567500	0.57345900	3.58751100	3.96919200	0.04410900	-0.12401100	0.14013200
3433	34.32000000	-0.04617600	-0.14603800	-0.09876500	0.24240900	-0.14922800	-0.04925900	3.30768100	1.23845800	3.55880900	-0.53916200	0.27917400	-0.64136700	0.17459300	-0.08324900	0.94214800	0.35649300	-0.22316500	0.41762700	0.68374000	3.12973600	4.06756700	0.06967400	-0.09185100	0.14055700
3434	34.33000000	-0.02411700	-0.11964000	-0.09222300	0.19466400	-0.18636200	-0.04914700	3.00533500	1.02207400	2.83549300	-0.30006400	0.27539200	-0.55568700	0.18707900	-0.07286600	0.96044100	0.37817700	-0.21327400	0.43455100	0.61893900	2.55309400	4.14271000	0.07098300	-0.13523200	0.12510700
3435	34.34000000	-0.00667900	-0.08739100	-0.08585700	0.15111000	-0.20163100	-0.04957300	2.48133500	0.99153900	2.21022600	-0.04637200	0.27476300	-0.47987300	0.23605500	-0.06315900	0.95071200	0.35930600	-0.18224900	0.49808800	0.55721100	1.95182200	4.15591500	0.04966600	-0.14770700	0.12634400
3436	34.35000000	0.01304500	-0.05287400	-0.07257700	0.09898000	-0.19405800	-0.02471700	1.99703400	1.05458200	1.83592600	0.28095100	0.33578600	-0.43259600	0.26090100	-0.03169800	0.96871300	0.35124700	-0.16026600	0.56930000	0.66706400	1.41239400	3.98073200	0.07897300	-0.17113000	0.08756800
3437	34.36000000	0.02903300	-0.02294400	-0.06864700	0.06609600	-0.15695900	0.01616300	1.65877200	0.92344400	1.57814800	0.68101500	0.45745100	-0.38638600	0.22429000	-0.00132600	1.02593400	0.32974600	-0.11880400	0.62674100	0.91818800	0.97604900	3.54884000	0.12175400	-0.17453400	0.05038700
3438	34.37000000	0.05650900	-0.00538000	-0.06529500	0.01611200	-0.09866000	0.04538100	1.44371700	0.58392700	1.21204100	1.00095300	0.51485900	-0.30408500	0.19291600	0.01835600	1.05856000	0.28502800	-0.09137500	0.67877600	1.18972500	0.64335300	2.88093100	0.10954500	-0.20512000	0.04629400
3439	34.38000000	0.05066400	0.04749200	-0.06460500	-0.02487600	-0.04717100	0.09814700	1.30951300	0.27993000	0.65179200	1.09447500	0.37098400	-0.20838800	0.16333300	0.02706300	1.05860100	0.19499000	-0.07516400	0.70921400	1.05044400	0.33582000	2.10217500	0.16579500	-0.26963600	0.07072800
3440	34.39000000	0.05247400	0.07889600	-0.07185500	-0.05703200	0.00784600	0.12756200	1.17262300	0.09564800	0.02461800	1.06456700	0.12389600	-0.14302100	0.12820300	0.02079300	1.05474100	0.11350200	-0.06593000	0.69141900	0.25045400	-0.02689500	1.30831800	0.01867200	-0.38943600	0.07021500
3441	34.40000000	0.04922100	0.09632000	-0.08020700	-0.06928800	0.03787600	0.15560700	0.90273000	-0.08385600	-0.54712300	1.01229000	-0.09362700	-0.16100000	0.12161400	0.06184800	1.12683800	0.05081100	-0.05552100	0.69063900	-0.34487000	-0.42405000	0.52011400	0.20181400	-0.43370700	0.03052300
3442	34.41000000	0.03759400	0.13682200	-0.09495900	-0.04934400	0.05576700	0.18809000	0.46191600	-0.29368100	-1.00079400	0.85102200	-0.31065300	-0.18035700	0.09787900	0.08808100	1.22674100	0.09014300	-0.05404900	0.66585200	-0.32585800	-0.72420700	-0.27232200	0.11948200	-0.48745400	0.00082900
3443	34.42000000	0.01689600	0.19198400	-0.12756900	-0.02935400	0.05404400	0.21583900	-0.02788500	-0.51406800	-1.36213000	0.48402700	-0.52946700	-0.10360200	0.13275800	0.10316100	1.27498200	0.13393900	-0.01047800	0.64509000	-0.10938600	-0.93862300	-0.99564400	0.16158000	-0.59394400	-0.03346800
3444	34.43000000	0.03307500	0.25058700	-0.14774500	0.00254200	0.05040000	0.23366500	-0.43712900	-0.73794600	-1.65646300	0.00071000	-0.68481900	-0.01511200	0.15625900	0.10585200	1.29625600	0.19625600	0.03492600	0.63273200	-0.04321300	-1.10084000	-1.57579900	0.20323900	-0.66315400	-0.04965900
3445	34.44000000	0.06075500	0.31091000	-0.18766700	0.01289400	0.03701600	0.24308600	-0.78277000	-0.94558500	-1.88964500	-0.41574000	-0.74664700	-0.01904800	0.17042100	0.10637700	1.37596000	0.27075100	0.07943500	0.62979300	-0.76377500	-0.68896500	-2.06654300	0.21000100	-0.79084500	-0.06738900
3446	34.45000000	0.09322500	0.38402700	-0.22332500	0.03673200	0.04485500	0.25472100	-1.13739000	-1.20165100	-1.99955500	-0.60555400	-0.75874400	-0.11919400	0.20762100	0.11612000	1.46838900	0.34549200	0.13964400	0.64630100	-1.76947300	-0.74699300	-2.24301500	0.23682700	-0.87220900	-0.05115100
3447	34.46000000	0.12758000	0.42003100	-0.23066800	0.05879700	0.09386900	0.26376000	-2.22251600	-1.38370000	-1.57911200	-0.49235800	-0.76812300	-0.30688900	0.23780100	0.12197600	1.53700000	0.38695200	0.19437500	0.63388100	0.80391400	-1.23051200	-2.11269800	0.22829600	-1.03694100	-0.09352200
